<svg xmlns="http://www.w3.org/2000/svg" version="1.1" xmlns:xlink="http://www.w3.org/1999/xlink"
    xmlns:svgjs="http://svgjs.com/svgjs" width="512" height="512" x="0" y="0" viewBox="0 0 256 256"
    style="enable-background:new 0 0 512 512" xml:space="preserve" class="">
    <g transform="matrix(0.9500000000000002,0,0,0.9500000000000002,6.39999656677243,6.399999999999977)">
        <path fill="#ffffff" fill-opacity="0" d="M13.256 7.5h80.5v241h-80.5z" data-original="#b76c6c" class=""></path>
        <path fill="#ffffff" fill-opacity="0" d="M13.255 7.5h15v241h-15z" data-original="#c98585" class=""></path>
        <path fill="#ffffff" fill-opacity="0" d="M78.755 7.5h15v241h-15z" data-original="#965959" class=""></path>
        <path fill="#ffffff" fill-opacity="0"
            d="M237.593 191.685c-6.883 6.883-18.042 6.883-24.925 0l-41.373-41.373 24.925-24.925 41.373 41.373c6.883 6.883 6.883 18.042 0 24.925z"
            data-original="#b76c6c" class=""></path>
        <path fill="#ffffff" fill-opacity="0"
            d="m205.934 115.672-44.354 44.354c-5.858 5.858-15.355 5.858-21.213 0l-45.159-45.159a5 5 0 0 1 0-7.071L153.704 49.3a5 5 0 0 1 7.071 0l45.159 45.159c5.858 5.857 5.858 15.355 0 21.213z"
            data-original="#ffe2e2" class=""></path>
        <path fill="#ffffff" fill-opacity="0"
            d="m160.774 49.297 45.163 45.163c5.855 5.855 5.855 15.358 0 21.213L195.33 126.28c5.855-5.855 5.855-15.358 0-21.213l-45.163-45.163a5.001 5.001 0 0 0-7.071 0l10.607-10.607a5.003 5.003 0 0 1 7.071 0z"
            data-original="#ffcfcf" class=""></path>
        <path fill="#ffffff" fill-opacity="0"
            d="M172.187 149.424 161.58 160.03c-5.855 5.855-15.358 5.855-21.213 0l-45.163-45.163a5.001 5.001 0 0 1 0-7.071l10.607-10.607a5.001 5.001 0 0 0 0 7.071l45.163 45.163c5.855 5.856 15.358 5.856 21.213.001z"
            data-original="#ffefee" class=""></path>
        <path fill="#ffffff" fill-opacity="0"
            d="m205.934 115.672-44.354 44.354c-5.858 5.858-15.355 5.858-21.213 0l-5.421-5.421 65.568-65.567 5.421 5.421c5.857 5.857 5.857 15.355-.001 21.213z"
            data-original="#b76c6c" class=""></path>
        <path fill="#ffffff" fill-opacity="0"
            d="m200.514 89.037 5.423 5.423c5.855 5.855 5.855 15.358 0 21.213L195.33 126.28c5.855-5.855 5.855-15.358 0-21.213l-5.424-5.424z"
            data-original="#965959" class=""></path>
        <g fill="#c98585">
            <path
                d="M172.187 149.424 161.58 160.03c-5.855 5.855-15.358 5.855-21.213 0l-5.423-5.424L145.55 144l5.423 5.423c5.856 5.856 15.359 5.856 21.214.001z"
                fill="#ffffff" fill-opacity="0" data-original="#c98585" class=""></path>
            <path
                d="M241.717 185.196a17.605 17.605 0 0 1-4.122 6.484c-6.887 6.887-18.045 6.887-24.926.007l-41.373-41.373 10.607-10.607 41.373 41.373c4.985 4.986 12.218 6.365 18.441 4.116z"
                fill="#ffffff" fill-opacity="0" data-original="#c98585" class=""></path>
        </g>
        <g fill="#5f266d">
            <path
                d="M73.756 35.555a4 4 0 0 0-4 4v14.191a4 4 0 0 0 8 0V39.555a4 4 0 0 0-4-4zM73.756 64.746a4 4 0 0 0-4 4v100a4 4 0 0 0 8 0v-100a4 4 0 0 0-4-4zM45.939 163.555a4 4 0 0 0-4 4v40a4 4 0 0 0 8 0v-40a4 4 0 0 0-4-4zM45.939 218.555a4 4 0 0 0-4 4v9.774a4 4 0 0 0 8 0v-9.774a4 4 0 0 0-4-4zM32.756 39.042a4 4 0 0 0-4 4v9.219a4 4 0 0 0 8 0v-9.219a4 4 0 0 0-4-4z"
                fill="#000000" data-original="#5f266d" class=""></path>
            <path
                d="m240.42 163.93-38.545-38.544 6.886-6.886c7.426-7.426 7.427-19.443 0-26.87l-45.158-45.159a8.995 8.995 0 0 0-12.728 0L97.756 99.588V7.5a4 4 0 0 0-4-4h-80.5a4 4 0 0 0-4 4v241a4 4 0 0 0 4 4h80.5a4 4 0 0 0 4-4V123.073l39.781 39.781c7.424 7.426 19.444 7.427 26.869 0l6.886-6.886 38.545 38.545c4.216 4.216 9.753 6.324 15.291 6.324s11.075-2.108 15.291-6.324c8.433-8.432 8.433-22.151.001-30.583zM17.256 244.5v-233h11.5v16.542a4 4 0 0 0 8 0V11.5h53v99.628c-.003.135-.003.27 0 .405V244.5zm80.5-133.098v-.142a.991.991 0 0 1 .278-.636l8.221-8.221 19.703 19.703c.781.781 1.805 1.171 2.828 1.171s2.048-.391 2.828-1.171a3.999 3.999 0 0 0 0-5.657l-19.703-19.703 12.543-12.543 19.703 19.703c.78.781 1.805 1.171 2.828 1.171s2.048-.391 2.828-1.171a3.999 3.999 0 0 0 0-5.657L130.11 78.546l12.543-12.543 19.703 19.703c.78.781 1.805 1.171 2.828 1.171s2.048-.391 2.828-1.171a3.999 3.999 0 0 0 0-5.657L148.31 60.347l8.221-8.221a.997.997 0 0 1 1.413 0l36.909 36.909-59.911 59.911-36.909-36.909a.99.99 0 0 1-.277-.635zm60.994 45.795c-4.305 4.303-11.264 4.291-15.557 0l-2.593-2.593 59.911-59.91 2.593 2.593a10.995 10.995 0 0 1 0 15.556l-44.354 44.354zm76.014 31.658c-5.313 5.313-13.957 5.313-19.27 0l-38.544-38.544 19.268-19.269 38.546 38.544c5.311 5.314 5.311 13.957 0 19.269z"
                fill="#000000" data-original="#5f266d" class=""></path>
        </g>
    </g>
</svg>