<svg xmlns="http://www.w3.org/2000/svg" version="1.1" xmlns:xlink="http://www.w3.org/1999/xlink" xmlns:svgjs="http://svgjs.com/svgjs" width="512" height="512" x="0" y="0" viewBox="0 0 24 24" style="enable-background:new 0 0 512 512" xml:space="preserve" class=""><g><path d="M12 13c-1.378 0-2.5-1.122-2.5-2.5S10.622 8 12 8s2.5 1.122 2.5 2.5S13.378 13 12 13zm0-4c-.827 0-1.5.673-1.5 1.5S11.173 12 12 12s1.5-.673 1.5-1.5S12.827 9 12 9z" fill="#000000" data-original="#000000" class=""></path><path d="M12.775 17h-1.55a.985.985 0 0 1-.98-.903l-.124-1.273a4.61 4.61 0 0 1-.829-.495l-1.121.521a.973.973 0 0 1-1.268-.416l-.774-1.38a1.01 1.01 0 0 1 .276-1.303l1-.74c-.019-.156-.033-.33-.033-.511s.014-.355.033-.511l-1-.74c-.405-.3-.524-.86-.277-1.303l.775-1.381a.974.974 0 0 1 1.268-.415l1.121.521c.261-.196.539-.361.829-.495l.124-1.274a.985.985 0 0 1 .98-.902h1.55c.51 0 .932.388.98.903l.124 1.273c.291.134.568.299.829.495l1.121-.521a.975.975 0 0 1 1.268.416l.774 1.38a1.01 1.01 0 0 1-.276 1.303l-1 .74c.019.156.033.33.033.511s-.014.355-.033.511l1 .74c.405.299.524.859.276 1.302l-.775 1.381a.975.975 0 0 1-1.267.415l-1.121-.521a4.576 4.576 0 0 1-.829.495l-.124 1.274a.985.985 0 0 1-.98.903zm-3.412-3.755a.5.5 0 0 1 .326.121c.328.283.69.5 1.076.645a.5.5 0 0 1 .322.419l.153 1.571L12.775 16l.138-1.57a.498.498 0 0 1 .322-.419 3.588 3.588 0 0 0 1.076-.645.502.502 0 0 1 .537-.075l1.402.652.749-1.378-1.24-.928a.501.501 0 0 1-.196-.485c.036-.212.065-.428.065-.651s-.029-.439-.065-.651a.498.498 0 0 1 .196-.485L17 8.445l-.776-1.391-1.376.655a.501.501 0 0 1-.538-.075 3.584 3.584 0 0 0-1.076-.645.5.5 0 0 1-.322-.419l-.152-1.571L11.225 5l-.138 1.57a.498.498 0 0 1-.322.419 3.588 3.588 0 0 0-1.076.645.502.502 0 0 1-.537.075L7.75 7.057l-.749 1.378 1.24.928a.501.501 0 0 1 .196.485c-.037.213-.065.428-.065.652s.029.439.065.651a.498.498 0 0 1-.196.485L7 12.555l.776 1.391 1.376-.655a.505.505 0 0 1 .211-.046zM21 24H3c-1.654 0-3-1.346-3-3s1.346-3 3-3h18c1.654 0 3 1.346 3 3s-1.346 3-3 3zM3 19c-1.103 0-2 .897-2 2s.897 2 2 2h18c1.103 0 2-.897 2-2s-.897-2-2-2z" fill="#000000" data-original="#000000" class=""></path><path d="M3 22c-.551 0-1-.449-1-1s.449-1 1-1 1 .449 1 1-.449 1-1 1zm0-1.001c0 .001 0 .001 0 0l.5.001zM9 22c-.551 0-1-.449-1-1s.449-1 1-1 1 .449 1 1-.449 1-1 1zm0-1.001c0 .001 0 .001 0 0l.5.001zM15 22c-.551 0-1-.449-1-1s.449-1 1-1 1 .449 1 1-.449 1-1 1zm0-1.001c0 .001 0 .001 0 0l.5.001zM21 22c-.551 0-1-.449-1-1s.449-1 1-1 1 .449 1 1-.449 1-1 1zm0-1.001c0 .001 0 .001 0 0l.5.001z" fill="#000000" data-original="#000000" class=""></path></g></svg>